<svg xmlns="http://www.w3.org/2000/svg" width="65" height="65.001" viewBox="0 0 65 65.001">
  <g id="analysis" transform="translate(-272.094 -7.446)">
    <path id="Differenzmenge_7" data-name="Differenzmenge 7" d="M2394.5,1525a32.395,32.395,0,1,1,12.23-2.38A32.393,32.393,0,0,1,2394.5,1525Zm6.406-51.446a12,12,0,0,0-7.575,21.3l-8.907,15.426,3.464,2,8.919-15.448a12,12,0,1,0,4.1-23.279Zm-.19,20.435a8.492,8.492,0,1,1,6-2.487A8.434,8.434,0,0,1,2400.716,1493.99Z" transform="translate(-2089.906 -1452.554)" fill="#ebebeb" opacity="0.5"/>
  </g>
</svg>
