<svg xmlns="http://www.w3.org/2000/svg" width="65.001" height="65" viewBox="0 0 65.001 65">
  <g id="chart" transform="translate(-107.093 -11.954)">
    <path id="Differenzmenge_3" data-name="Differenzmenge 3" d="M2407.962,1538.462a32.4,32.4,0,0,1-22.981-9.52c-.766-.766-1.5-1.578-2.187-2.414l19.778-19.961,3.354,3.385-.065.066,3.171,3.2.065-.066.066.066,3.171-3.2-.065-.066,18.141-18.309,2.3,2.321v-8h-7.928l2.456,2.479-18.14,18.309-3.354-3.385.012-.013-3.17-3.2-.013.013-.012-.013-3.172,3.2.012.013-19.249,19.427a32.259,32.259,0,0,1-3.963-9.976,32.527,32.527,0,1,1,31.773,25.644Z" transform="translate(-2268.368 -1461.508)" fill="#ebebeb" opacity="0.5"/>
  </g>
</svg>
