<svg xmlns="http://www.w3.org/2000/svg" width="65" height="65" viewBox="0 0 65 65">
  <g id="ticker" transform="translate(-194.094 -10.446)">
    <path id="Differenzmenge_4" data-name="Differenzmenge 4" d="M2407.962,1538.462a32.4,32.4,0,1,1,12.23-2.38A32.391,32.391,0,0,1,2407.962,1538.462Zm-.095-51.446a18.5,18.5,0,1,0,18.5,18.5A18.521,18.521,0,0,0,2407.867,1487.016Z" transform="translate(-2181.368 -1463.016)" fill="#ebebeb" opacity="0.5"/>
    <path id="Differenzmenge_6" data-name="Differenzmenge 6" d="M2376.7,1489.4a14.7,14.7,0,1,1,10.4-4.307A14.6,14.6,0,0,1,2376.7,1489.4Zm-.094-22.647a1.5,1.5,0,0,0-1.5,1.5v8a1.5,1.5,0,0,0,2.062,1.391,1.551,1.551,0,0,0,.164-.035l5.8-1.552a1.5,1.5,0,0,0-.388-2.949,1.53,1.53,0,0,0-.389.051l-4.244,1.138v-6.043A1.5,1.5,0,0,0,2376.606,1466.755Z" transform="translate(-2150.106 -1431.755)" fill="#ebebeb" opacity="0.5"/>
  </g>
</svg>
